<?xml version="1.0" encoding="UTF-8"?>
<svg width="15px" height="15px" viewBox="0 0 15 15" version="1.1" xmlns="http://www.w3.org/2000/svg" xmlns:xlink="http://www.w3.org/1999/xlink">
    <!-- Generator: Sketch 58 (84663) - https://sketch.com -->
    <title>settings</title>
    <desc>Created with Sketch.</desc>
    <g id="github" stroke="none" stroke-width="1" fill="none" fill-rule="evenodd">
        <g id="Done" transform="translate(-443.000000, -239.000000)" fill="#9C9C9C" fill-rule="nonzero">
            <g id="Group-3" transform="translate(443.000000, 239.000000)">
                <g id="settings">
                    <path d="M14.2277778,5.83333333 L12.8244444,5.83333333 C12.5988889,5.83333333 12.4130556,5.70916667 12.3266667,5.50083333 C12.2402778,5.2925 12.2841667,5.07305556 12.4433333,4.91361111 L13.4355556,3.92166667 C13.5813889,3.77583333 13.6616667,3.58166667 13.6616667,3.37555556 C13.6616667,3.16916667 13.5813889,2.97527778 13.4355556,2.82916667 L12.1708333,1.56444444 C11.8791667,1.27277778 11.3705556,1.27222222 11.0783333,1.56444444 L10.0863889,2.55638889 C9.92694444,2.71555556 9.70694444,2.76 9.49916667,2.67333333 C9.29083333,2.58694444 9.16666667,2.40111111 9.16666667,2.17555556 L9.16666667,0.772222222 C9.16666667,0.346388889 8.82027778,0 8.39444444,0 L6.60555556,0 C6.17972222,0 5.83333333,0.346388889 5.83333333,0.772222222 L5.83333333,2.17555556 C5.83333333,2.40111111 5.70916667,2.58694444 5.50083333,2.67333333 C5.29305556,2.76027778 5.07305556,2.71555556 4.91361111,2.55638889 L3.92166667,1.56444444 C3.62944444,1.27222222 3.12083333,1.27277778 2.82916667,1.56444444 L1.56444444,2.82916667 C1.41861111,2.975 1.33833333,3.16916667 1.33833333,3.37555556 C1.33833333,3.58166667 1.41861111,3.77555556 1.56444444,3.92166667 L2.55666667,4.91361111 C2.71583333,5.07305556 2.75944444,5.2925 2.67333333,5.50083333 C2.58722222,5.70916667 2.40111111,5.83333333 2.17555556,5.83333333 L0.772222222,5.83333333 C0.346388889,5.83333333 0,6.17972222 0,6.60555556 L0,8.39416667 C0,8.82027778 0.346388889,9.16666667 0.772222222,9.16666667 L2.17555556,9.16666667 C2.40111111,9.16666667 2.58694444,9.29083333 2.67333333,9.49916667 C2.75972222,9.7075 2.71583333,9.92694444 2.55666667,10.0863889 L1.56444444,11.0783333 C1.41861111,11.2241667 1.33833333,11.4183333 1.33833333,11.6244444 C1.33833333,11.8308333 1.41861111,12.0247222 1.56444444,12.1708333 L2.82916667,13.4355556 C3.12111111,13.7275 3.62944444,13.7280556 3.92166667,13.4355556 L4.91361111,12.4433333 C5.07305556,12.2841667 5.29222222,12.2402778 5.50083333,12.3266667 C5.70916667,12.4130556 5.83333333,12.5988889 5.83333333,12.8244444 L5.83333333,14.2277778 C5.83333333,14.6536111 6.17972222,15 6.60555556,15 L8.39416667,15 C8.82,15 9.16638889,14.6536111 9.16638889,14.2277778 L9.16638889,12.8244444 C9.16638889,12.5988889 9.29055556,12.4130556 9.49888889,12.3266667 C9.7075,12.24 9.92666667,12.2841667 10.0861111,12.4433333 L11.0780556,13.4355556 C11.3702778,13.7277778 11.8788889,13.7272222 12.1705556,13.4355556 L13.4352778,12.1708333 C13.5811111,12.025 13.6613889,11.8308333 13.6613889,11.6244444 C13.6613889,11.4183333 13.5811111,11.2244444 13.4352778,11.0783333 L12.4430556,10.0863889 C12.2838889,9.92694444 12.2402778,9.7075 12.3263889,9.49916667 C12.4125,9.29083333 12.5988889,9.16666667 12.8244444,9.16666667 L14.2277778,9.16666667 C14.6536111,9.16666667 15,8.82027778 15,8.39444444 L15,6.60555556 C15,6.17972222 14.6536111,5.83333333 14.2277778,5.83333333 Z M14.4444444,8.39444444 C14.4444444,8.51388889 14.3472222,8.61111111 14.2277778,8.61111111 L12.8244444,8.61111111 C12.3733333,8.61111111 11.9858333,8.87 11.8133333,9.28666667 C11.6405556,9.70333333 11.7313889,10.1605556 12.0505556,10.4794444 L13.0427778,11.4713889 C13.1275,11.5561111 13.1275,11.6936111 13.0427778,11.7780556 L11.7780556,13.0427778 C11.6936111,13.1272222 11.5561111,13.1277778 11.4713889,13.0427778 L10.4794444,12.0505556 C10.1602778,11.7313889 9.70333333,11.6411111 9.28666667,11.8133333 C8.87,11.9858333 8.61111111,12.3733333 8.61111111,12.8244444 L8.61111111,14.2277778 C8.61111111,14.3472222 8.51388889,14.4444444 8.39444444,14.4444444 L6.60555556,14.4444444 C6.48611111,14.4444444 6.38888889,14.3472222 6.38888889,14.2277778 L6.38888889,12.8244444 C6.38888889,12.3733333 6.13,11.9858333 5.71333333,11.8133333 C5.57361111,11.7552778 5.42972222,11.7269444 5.2875,11.7269444 C5.00583333,11.7269444 4.73277778,11.8380556 4.52055556,12.0502778 L3.52861111,13.0425 C3.44361111,13.1275 3.30611111,13.1269444 3.22194444,13.0425 L1.95722222,11.7777778 C1.8725,11.6930556 1.8725,11.5555556 1.95722222,11.4711111 L2.94944444,10.4791667 C3.26833333,10.1602778 3.35944444,9.70305556 3.18666667,9.28638889 C3.01416667,8.87 2.62666667,8.61111111 2.17555556,8.61111111 L0.772222222,8.61111111 C0.652777778,8.61111111 0.555555556,8.51388889 0.555555556,8.39444444 L0.555555556,6.60555556 C0.555555556,6.48611111 0.652777778,6.38888889 0.772222222,6.38888889 L2.17555556,6.38888889 C2.62666667,6.38888889 3.01416667,6.13 3.18666667,5.71333333 C3.35944444,5.29666667 3.26861111,4.83944444 2.94944444,4.52055556 L1.95722222,3.52861111 C1.8725,3.44388889 1.8725,3.30638889 1.95722222,3.22194444 L3.22194444,1.95722222 C3.30638889,1.8725 3.44388889,1.8725 3.52861111,1.95722222 L4.52055556,2.94916667 C4.83916667,3.26777778 5.29611111,3.35916667 5.71333333,3.18638889 C6.13,3.01416667 6.38888889,2.62666667 6.38888889,2.17555556 L6.38888889,0.772222222 C6.38888889,0.652777778 6.48611111,0.555555556 6.60555556,0.555555556 L8.39416667,0.555555556 C8.51388889,0.555555556 8.61111111,0.652777778 8.61111111,0.772222222 L8.61111111,2.17555556 C8.61111111,2.62666667 8.87,3.01416667 9.28666667,3.18666667 C9.70388889,3.35944444 10.1605556,3.26833333 10.4794444,2.94944444 L11.4713889,1.9575 C11.5563889,1.87277778 11.6938889,1.87277778 11.7780556,1.9575 L13.0427778,3.22222222 C13.1275,3.30694444 13.1275,3.44444444 13.0427778,3.52888889 L12.0505556,4.52083333 C11.7316667,4.83972222 11.6405556,5.29694444 11.8133333,5.71361111 C11.9858333,6.13027778 12.3733333,6.38916667 12.8244444,6.38916667 L14.2277778,6.38916667 C14.3472222,6.38888889 14.4444444,6.48611111 14.4444444,6.60555556 L14.4444444,8.39444444 Z" id="Shape"></path>
                    <path d="M7.5,5 C6.12138889,5 5,6.12138889 5,7.5 C5,8.87861111 6.12138889,10 7.5,10 C8.87861111,10 10,8.87861111 10,7.5 C10,6.12138889 8.87861111,5 7.5,5 Z M7.5,9.44444444 C6.42805556,9.44444444 5.55555556,8.57194444 5.55555556,7.5 C5.55555556,6.42805556 6.42805556,5.55555556 7.5,5.55555556 C8.57194444,5.55555556 9.44444444,6.42805556 9.44444444,7.5 C9.44444444,8.57194444 8.57194444,9.44444444 7.5,9.44444444 Z" id="Shape"></path>
                </g>
            </g>
        </g>
    </g>
</svg>